<svg xmlns="http://www.w3.org/2000/svg" viewBox="0 0 200 60" fill="none">
  <defs>
    <linearGradient id="kw-grad" x1="0%" y1="0%" x2="100%" y2="100%">
      <stop offset="0%" stop-color="#e8b820"/>
      <stop offset="100%" stop-color="#d4a726"/>
    </linearGradient>
  </defs>
  <!-- Decorative K -->
  <g transform="translate(0,0)">
    <!-- Stem of K with decorative curl at top -->
    <path d="M18 55 L18 18 Q18 8 24 4 Q28 1 30 4 Q32 7 28 10 Q24 13 22 15 L22 55 Z" fill="url(#kw-grad)"/>
    <!-- Upper curl -->
    <path d="M22 6 Q18 2 14 4 Q8 8 10 16 Q11 20 14 18 Q17 16 18 12 Q19 8 22 6 Z" fill="url(#kw-grad)"/>
    <!-- K arms -->
    <path d="M22 32 L38 14 L44 14 L28 32 L46 55 L39 55 L24 36 L22 38 L22 55 L22 32 Z" fill="url(#kw-grad)"/>
  </g>
  <!-- Vertical divider -->
  <line x1="58" y1="12" x2="58" y2="48" stroke="#d4a726" stroke-width="1" opacity="0.5"/>
  <!-- karalisweb text -->
  <text x="68" y="38" font-family="system-ui, -apple-system, sans-serif" font-size="22" fill="#d4a726" font-weight="400" letter-spacing="0.5">
    karalis<tspan font-weight="700">web</tspan>
  </text>
  <!-- Tagline -->
  <text x="68" y="50" font-family="system-ui, -apple-system, sans-serif" font-size="8" fill="#d4a726" font-weight="300" letter-spacing="1.5" opacity="0.7">
    sfamiamo un sito web
  </text>
</svg>
